<?xml version="1.0" encoding="UTF-8" standalone="no"?>
<svg
   version="1.1"
   viewBox="0 0 63.030638 35.848928"
   id="svg54"
   xml:space="preserve"
   width="16.676857mm"
   height="9.4850292mm"
   xmlns="http://www.w3.org/2000/svg"
   xmlns:svg="http://www.w3.org/2000/svg"><defs
     id="defs58" /><rect
     style="fill:#fbe9ce;fill-opacity:1;stroke:none;stroke-width:0.0528167;stroke-linecap:square;stroke-dasharray:none;stroke-opacity:1;paint-order:stroke markers fill"
     id="rect2472-7"
     width="63.030643"
     height="35.84893"
     x="3.5006574e-06"
     y="-1.6478236e-06" /><path
     d="m 56.977543,7.6182746 c 0.410543,0.293265 0.75916,0.660373 0.858523,1.164869 0.04552,0.708566 -0.185955,1.065164 -0.631711,1.5778034 -0.395861,0.409455 -0.815882,0.788937 -1.240484,1.168361 -0.324644,0.296157 -0.632214,0.602209 -0.9379,0.917966 -0.512331,0.528011 -1.048158,1.022733 -1.59385,1.515825 -0.301957,0.280379 -0.587721,0.569726 -0.872447,0.867495 -0.785217,0.807197 -1.634314,1.542522 -2.48524,2.279369 -0.168075,0.145681 -0.335715,0.291884 -0.502693,0.438751 -2.399056,2.108194 -5.376781,4.078572 -8.708062,3.916857 -0.09654,-0.0026 -0.19308,-0.0053 -0.292509,-0.008 -2.079561,-0.116366 -3.904187,-1.029095 -5.663861,-2.069694 -1.287858,-0.758847 -2.502587,-1.344088 -4.051801,-1.009091 -1.890909,0.674965 -3.425637,2.305306 -4.844203,3.679732 -1.363887,1.303296 -3.072319,2.233221 -4.975839,2.278907 -1.158201,-0.04003 -2.21174,-0.439479 -3.284452,-0.846964 -1.228931,-0.465989 -2.17513,-0.631978 -3.408239,-0.07924 -0.962102,0.500497 -1.798081,1.124435 -2.570712,1.882585 -0.268115,0.261401 -0.543566,0.51332 -0.820258,0.765607 -0.407452,0.375325 -0.799854,0.760238 -1.1847817,1.158387 -0.474609,0.48646 -0.96291,0.953804 -1.464597,1.411835 -0.06752,0.06247 -0.135037,0.124939 -0.204658,0.189267 -0.470531,0.424928 -0.787438,0.56576 -1.416384,0.544491 -0.562286,-0.05727 -0.830564,-0.260969 -1.188411,-0.687935 -0.300201,-0.431814 -0.342867,-0.707251 -0.295067,-1.228169 0.378945,-1.018131 1.371437,-1.699872 2.164749,-2.405923 0.294098,-0.261792 0.583041,-0.52792 0.867387,-0.800502 0.07144,-0.06838 0.14288,-0.136769 0.216445,-0.207252 0.07317,-0.07016 0.146343,-0.140313 0.221758,-0.212557 4.2826487,-4.101376 4.2826487,-4.101376 7.3071317,-4.058923 1.000652,0.04995 1.856386,0.344359 2.782637,0.69617 1.244496,0.469951 2.22795,0.736261 3.516878,0.228826 1.398347,-0.637258 2.544637,-1.848292 3.640875,-2.899195 1.704983,-1.61303 3.581229,-2.883069 6.012141,-2.84102 2.049217,0.130114 3.66494,0.97854 5.409494,1.964292 1.874181,1.056537 3.408051,1.458189 5.553033,0.878703 2.488872,-0.836829 4.748674,-2.75965 6.607478,-4.581334 0.284087,-0.275019 0.577522,-0.538803 0.870838,-0.803926 0.433145,-0.394931 0.851,-0.798143 1.258337,-1.219578 0.514761,-0.530806 1.054654,-1.023827 1.607329,-1.5141054 0.531544,-0.474358 1.027259,-0.972518 1.515278,-1.492021 0.698256,-0.668313 1.295496,-0.914356 2.227848,-0.560659 z"
     fill="#5D7D5E"
     id="path8-3"
     style="fill:#e87d5f;fill-opacity:1;stroke:#e87d5f;stroke-width:2.40343;stroke-dasharray:none;stroke-opacity:1" /></svg>
