<?xml version="1.0" encoding="UTF-8" standalone="no"?>
<svg
   version="1.1"
   viewBox="0 0 40.447456 40.447459"
   id="svg54"
   xml:space="preserve"
   width="10.701723mm"
   height="10.701724mm"
   xmlns="http://www.w3.org/2000/svg"
   xmlns:svg="http://www.w3.org/2000/svg"><defs
     id="defs58" /><g
     id="g2673"
     transform="matrix(0.1,0,0,0.1,-31.084744,-9.6067793)"><circle
       style="fill:#fbe9ce;fill-opacity:1;stroke:#5d7d5f;stroke-width:40;stroke-linecap:square;stroke-dasharray:none;stroke-opacity:1"
       id="path3174"
       cx="513.08472"
       cy="298.30508"
       r="182.23729" /><path
       transform="translate(582.69,212.19)"
       d="m 0,0 c 3.486,2.732 5.725,5.271 7.312,9.438 0,9.315 -5.871,19.064 -9.427,27.619 -1.553,3.738 -3.098,7.479 -4.643,11.22 -0.322,0.779 -0.644,1.558 -0.975,2.361 -3.586,8.688 -7.117,17.399 -10.642,26.112 -0.633,1.565 -1.267,3.13 -1.9,4.695 -0.31,0.765 -0.619,1.53 -0.938,2.318 -0.306,0.756 -0.612,1.512 -0.928,2.292 -0.453,1.12 -0.453,1.12 -0.915,2.262 -1.907,4.712 -3.821,9.421 -5.741,14.128 -0.476,1.169 -0.953,2.337 -1.443,3.541 -0.908,2.22 -1.817,4.44 -2.729,6.659 -2.042,4.985 -4.04,9.977 -5.926,15.023 -0.347,0.915 -0.694,1.83 -1.053,2.773 -0.629,1.668 -1.245,3.342 -1.841,5.022 -2.627,6.908 -6.807,11.506 -13.149,15.287 -7.464,2.115 -13.689,2.047 -20.556,-1.606 -4.245,-2.576 -8.104,-5.645 -12.006,-8.706 -1.852,-1.437 -3.705,-2.872 -5.559,-4.305 -0.933,-0.722 -1.866,-1.443 -2.827,-2.187 -2.688,-2.047 -5.406,-4.042 -8.149,-6.016 -0.847,-0.611 -1.693,-1.221 -2.565,-1.85 -1.589,-1.14 -3.182,-2.274 -4.782,-3.398 -6.116,-4.408 -13.531,-10.18 -15.306,-17.87 -0.784,-6.796 1.237,-12.407 5.368,-17.777 4.489,-4.746 9.843,-8.562 15.043,-12.488 3.73,-2.824 7.382,-5.74 11.027,-8.672 9.234,-7.415 18.525,-14.751 27.938,-21.937 5.653,-4.321 11.17,-8.798 16.676,-13.304 4.157,-3.393 8.362,-6.704 12.636,-9.946 5.602,-4.271 10.992,-8.749 16.34,-13.333 0.981,-0.839 1.962,-1.678 2.972,-2.543 0.53,-0.461 1.06,-0.923 1.606,-1.399 C -11.832,-1.097 -6.682,-2.953 0,0 Z"
       fill="#5E7E60"
       id="path10"
       style="fill:#e87d5f;fill-opacity:1;stroke:#e87d5f;stroke-width:10;stroke-dasharray:none;stroke-opacity:1" /></g></svg>
