<?xml version="1.0" encoding="UTF-8" standalone="no"?>
<svg
   version="1.1"
   viewBox="0 0 89.999989 89.999989"
   id="svg54"
   xml:space="preserve"
   width="23.812498mm"
   height="23.812498mm"
   xmlns="http://www.w3.org/2000/svg"
   xmlns:svg="http://www.w3.org/2000/svg"><defs
     id="defs58" /><rect
     style="fill:none;fill-opacity:1;stroke:none;stroke-width:0.1;stroke-linecap:square;stroke-dasharray:none;stroke-opacity:1;paint-order:stroke markers fill"
     id="rect2472"
     width="90"
     height="90"
     x="0"
     y="0" /><g
     id="g3373"
     transform="matrix(0.1,0,0,0.1,-5.8408916,-5.7207638)"><path
       id="rect3120"
       style="fill:#fbe9ce;fill-opacity:1;stroke:#5d7d5f;stroke-width:40;stroke-linecap:square;stroke-dasharray:none;stroke-opacity:1"
       d="m 244.72726,302.24504 h 537.05393 c 42.65283,0 81.61242,37.98986 76.99068,84.58389 l -41.22034,415.56243 c -4.45714,44.93465 -30.24134,81.32966 -67.80567,81.32966 H 276.76259 c -37.56433,0 -63.37942,-36.70658 -67.80566,-81.32966 L 167.73659,386.82893 c -4.62174,-46.59403 34.33784,-84.58389 76.99067,-84.58389 z" /><path
       d="m 727,533.00637 c 3.625,2.118 6.793,4.895 8,9 0.916,5.837 -0.731,8.968 -4.035,13.555 -2.969,3.694 -6.161,7.158 -9.391,10.625 -2.465,2.701 -4.781,5.471 -7.074,8.32 -3.844,4.765 -7.908,9.272 -12.055,13.773 -2.289,2.553 -4.437,5.168 -6.57,7.852 -5.893,7.286 -12.37,14.025 -18.861,20.778 -1.282,1.335 -2.56,2.674 -3.832,4.018 -18.277,19.294 -41.454,37.886 -69.182,39.079 -0.802,0.052 -1.604,0.103 -2.43,0.156 -17.321,0.617 -33.135,-5.559 -48.508,-12.844 -11.249,-5.309 -21.76,-9.235 -34.343,-5.281 -15.156,7.031 -26.634,21.708 -37.344,34.176 -10.311,11.837 -23.761,20.842 -39.5,22.668 -9.628,0.549 -18.662,-1.96 -27.861,-4.521 -10.538,-2.927 -18.505,-3.583 -28.303,1.935 -7.592,4.879 -14.045,10.685 -19.871,17.555 -2.023,2.37 -4.114,4.667 -6.215,6.968 -3.091,3.42 -6.05,6.908 -8.937,10.5 -3.563,4.392 -7.254,8.636 -11.063,12.813 -0.512,0.569 -1.024,1.138 -1.552,1.724 -3.576,3.879 -6.095,5.287 -11.323,5.589 -4.703,-0.047 -7.081,-1.531 -10.371,-4.797 -2.816,-3.35 -3.379,-5.6 -3.379,-9.953 2.366,-8.725 10.072,-15.129 16.109,-21.583 2.238,-2.393 4.43,-4.818 6.579,-7.293 0.54,-0.621 1.08,-1.242 1.636,-1.882 0.553,-0.637 1.106,-1.274 1.676,-1.93 32.37,-37.243 32.37,-37.243 57.465,-39.191 8.33,-0.347 15.645,1.442 23.588,3.653 10.67,2.948 19.022,4.407 29.317,-0.778 11.103,-6.344 19.681,-17.251 27.966,-26.793 12.902,-14.663 27.484,-26.614 47.66,-28.114 17.08,-0.48 31.114,5.322 46.32,12.164 16.334,7.33 29.35,9.492 46.684,3.059 19.988,-8.827 37.252,-26.479 51.27,-42.988 2.145,-2.495 4.376,-4.904 6.605,-7.324 3.289,-3.602 6.445,-7.261 9.5,-11.063 3.862,-4.79 7.961,-9.286 12.168,-13.769 4.044,-4.335 7.773,-8.84 11.422,-13.516 5.278,-6.069 10.04,-8.562 18.035,-6.34 z"
       fill="#5D7D5E"
       id="path8"
       style="fill:#e87d5f;fill-opacity:1;stroke:#e87d5f;stroke-width:10;stroke-dasharray:none;stroke-opacity:1" /></g><g
     id="g2673"
     transform="matrix(0.1,0,0,0.1,-5.1201276,-3.0377077)"><circle
       style="fill:#fbe9ce;fill-opacity:1;stroke:#5d7d5f;stroke-width:40;stroke-linecap:square;stroke-dasharray:none;stroke-opacity:1"
       id="path3174"
       cx="513.08472"
       cy="298.30508"
       r="182.23729" /><path
       transform="translate(582.69,212.19)"
       d="m 0,0 c 3.486,2.732 5.725,5.271 7.312,9.438 0,9.315 -5.871,19.064 -9.427,27.619 -1.553,3.738 -3.098,7.479 -4.643,11.22 -0.322,0.779 -0.644,1.558 -0.975,2.361 -3.586,8.688 -7.117,17.399 -10.642,26.112 -0.633,1.565 -1.267,3.13 -1.9,4.695 -0.31,0.765 -0.619,1.53 -0.938,2.318 -0.306,0.756 -0.612,1.512 -0.928,2.292 -0.453,1.12 -0.453,1.12 -0.915,2.262 -1.907,4.712 -3.821,9.421 -5.741,14.128 -0.476,1.169 -0.953,2.337 -1.443,3.541 -0.908,2.22 -1.817,4.44 -2.729,6.659 -2.042,4.985 -4.04,9.977 -5.926,15.023 -0.347,0.915 -0.694,1.83 -1.053,2.773 -0.629,1.668 -1.245,3.342 -1.841,5.022 -2.627,6.908 -6.807,11.506 -13.149,15.287 -7.464,2.115 -13.689,2.047 -20.556,-1.606 -4.245,-2.576 -8.104,-5.645 -12.006,-8.706 -1.852,-1.437 -3.705,-2.872 -5.559,-4.305 -0.933,-0.722 -1.866,-1.443 -2.827,-2.187 -2.688,-2.047 -5.406,-4.042 -8.149,-6.016 -0.847,-0.611 -1.693,-1.221 -2.565,-1.85 -1.589,-1.14 -3.182,-2.274 -4.782,-3.398 -6.116,-4.408 -13.531,-10.18 -15.306,-17.87 -0.784,-6.796 1.237,-12.407 5.368,-17.777 4.489,-4.746 9.843,-8.562 15.043,-12.488 3.73,-2.824 7.382,-5.74 11.027,-8.672 9.234,-7.415 18.525,-14.751 27.938,-21.937 5.653,-4.321 11.17,-8.798 16.676,-13.304 4.157,-3.393 8.362,-6.704 12.636,-9.946 5.602,-4.271 10.992,-8.749 16.34,-13.333 0.981,-0.839 1.962,-1.678 2.972,-2.543 0.53,-0.461 1.06,-0.923 1.606,-1.399 C -11.832,-1.097 -6.682,-2.953 0,0 Z"
       fill="#5E7E60"
       id="path10"
       style="fill:#e87d5f;fill-opacity:1;stroke:#e87d5f;stroke-width:10;stroke-dasharray:none;stroke-opacity:1" /></g></svg>
