<?xml version="1.0" encoding="UTF-8" standalone="no"?>
<svg
   version="1.1"
   viewBox="0 0 89.999989 89.999989"
   id="svg54"
   xml:space="preserve"
   width="23.812498mm"
   height="23.812498mm"
   xmlns="http://www.w3.org/2000/svg"
   xmlns:svg="http://www.w3.org/2000/svg"><defs
     id="defs58" /><rect
     style="fill:none;fill-opacity:1;stroke:none;stroke-width:0.1;stroke-linecap:square;stroke-dasharray:none;stroke-opacity:1;paint-order:stroke markers fill"
     id="rect2472"
     width="90"
     height="90"
     x="0"
     y="0" /><g
     id="g3373"
     transform="matrix(0.1,0,0,0.1,-5.8408916,-7.789836)"><path
       id="rect3120"
       style="fill:#fbe9ce;fill-opacity:1;stroke:#fbe9ce;stroke-width:40;stroke-linecap:square;stroke-dasharray:none;stroke-opacity:1"
       d="m 244.72726,302.24504 h 537.05393 c 42.65283,0 81.61242,37.98986 76.99068,84.58389 l -41.22034,415.56243 c -4.45714,44.93465 -30.24134,81.32966 -67.80567,81.32966 H 276.76259 c -37.56433,0 -63.37942,-36.70658 -67.80566,-81.32966 L 167.73659,386.82893 c -4.62174,-46.59403 34.33784,-84.58389 76.99067,-84.58389 z" /><path
       d="m 778.86498,546.62221 c 4.10543,2.93265 7.5916,6.60373 8.58523,11.64869 0.45521,7.08566 -1.85955,10.65164 -6.31711,15.77803 -3.95861,4.09455 -8.15882,7.88937 -12.40484,11.68361 -3.24644,2.96157 -6.32214,6.02209 -9.379,9.17966 -5.12331,5.28011 -10.48158,10.22733 -15.9385,15.15825 -3.01957,2.80379 -5.87721,5.69726 -8.72447,8.67495 -7.85217,8.07197 -16.34314,15.42522 -24.8524,22.79369 -1.68075,1.45681 -3.35715,2.91884 -5.02693,4.38751 -23.99056,21.08194 -53.76781,40.78572 -87.08062,39.16857 -0.96545,-0.0258 -1.9308,-0.0529 -2.92509,-0.0802 -20.79561,-1.16366 -39.04187,-10.29095 -56.63861,-20.69694 -12.87858,-7.58847 -25.02587,-13.44088 -40.51801,-10.09091 -18.90909,6.74965 -34.25637,23.05306 -48.44203,36.79732 -13.63887,13.03296 -30.72319,22.33221 -49.75839,22.78907 -11.58201,-0.40027 -22.1174,-4.39479 -32.84452,-8.46964 -12.28931,-4.65989 -21.7513,-6.31978 -34.08239,-0.79235 -9.62102,5.00497 -17.98081,11.24435 -25.70712,18.82585 -2.68115,2.61401 -5.43566,5.1332 -8.20258,7.65607 -4.07452,3.75325 -7.99854,7.60238 -11.84782,11.58387 -4.74609,4.8646 -9.6291,9.53804 -14.64597,14.11835 -0.67518,0.62469 -1.35037,1.24939 -2.04658,1.89267 -4.70531,4.24928 -7.87438,5.6576 -14.16384,5.44491 -5.62286,-0.57269 -8.30564,-2.60969 -11.88411,-6.87935 -3.00201,-4.31814 -3.42867,-7.07251 -2.95067,-12.28169 3.78945,-10.18131 13.71437,-16.99872 21.64749,-24.05923 2.94098,-2.61792 5.83041,-5.2792 8.67387,-8.00502 0.71441,-0.68384 1.4288,-1.36769 2.16445,-2.07252 0.73172,-0.70156 1.46343,-1.40313 2.21758,-2.12557 42.82649,-41.01376 42.82649,-41.01376 73.07132,-40.58923 10.00652,0.49946 18.56386,3.44359 27.82637,6.9617 12.44496,4.69951 22.2795,7.36261 35.16878,2.28826 13.98347,-6.37258 25.44637,-18.48292 36.40875,-28.99195 17.04983,-16.1303 35.81229,-28.83069 60.12141,-28.4102 20.49217,1.30114 36.6494,9.7854 54.09494,19.64292 18.74181,10.56537 34.08051,14.58189 55.53033,8.78703 24.88872,-8.36829 47.48674,-27.5965 66.07478,-45.81334 2.84087,-2.75019 5.77522,-5.38803 8.70838,-8.03926 4.33145,-3.94931 8.51,-7.98143 12.58337,-12.19578 5.14761,-5.30806 10.54654,-10.23827 16.07329,-15.14105 5.31544,-4.74358 10.27259,-9.72518 15.15278,-14.92021 6.98256,-6.68313 12.95496,-9.14356 22.27848,-5.60659 z"
       fill="#5D7D5E"
       id="path8"
       style="fill:#e87d5f;fill-opacity:1;stroke:#e87d5f;stroke-width:24.0343;stroke-dasharray:none;stroke-opacity:1" /></g><g
     id="g2673"
     transform="matrix(0.1,0,0,0.1,-5.1201276,-5.1067795)"><circle
       style="fill:#fbe9ce;fill-opacity:1;stroke:#5d7d5f;stroke-width:40;stroke-linecap:square;stroke-dasharray:none;stroke-opacity:1"
       id="path3174"
       cx="513.08472"
       cy="298.30508"
       r="182.23729" /><path
       transform="translate(582.69,212.19)"
       d="m 0,0 c 3.486,2.732 5.725,5.271 7.312,9.438 0,9.315 -5.871,19.064 -9.427,27.619 -1.553,3.738 -3.098,7.479 -4.643,11.22 -0.322,0.779 -0.644,1.558 -0.975,2.361 -3.586,8.688 -7.117,17.399 -10.642,26.112 -0.633,1.565 -1.267,3.13 -1.9,4.695 -0.31,0.765 -0.619,1.53 -0.938,2.318 -0.306,0.756 -0.612,1.512 -0.928,2.292 -0.453,1.12 -0.453,1.12 -0.915,2.262 -1.907,4.712 -3.821,9.421 -5.741,14.128 -0.476,1.169 -0.953,2.337 -1.443,3.541 -0.908,2.22 -1.817,4.44 -2.729,6.659 -2.042,4.985 -4.04,9.977 -5.926,15.023 -0.347,0.915 -0.694,1.83 -1.053,2.773 -0.629,1.668 -1.245,3.342 -1.841,5.022 -2.627,6.908 -6.807,11.506 -13.149,15.287 -7.464,2.115 -13.689,2.047 -20.556,-1.606 -4.245,-2.576 -8.104,-5.645 -12.006,-8.706 -1.852,-1.437 -3.705,-2.872 -5.559,-4.305 -0.933,-0.722 -1.866,-1.443 -2.827,-2.187 -2.688,-2.047 -5.406,-4.042 -8.149,-6.016 -0.847,-0.611 -1.693,-1.221 -2.565,-1.85 -1.589,-1.14 -3.182,-2.274 -4.782,-3.398 -6.116,-4.408 -13.531,-10.18 -15.306,-17.87 -0.784,-6.796 1.237,-12.407 5.368,-17.777 4.489,-4.746 9.843,-8.562 15.043,-12.488 3.73,-2.824 7.382,-5.74 11.027,-8.672 9.234,-7.415 18.525,-14.751 27.938,-21.937 5.653,-4.321 11.17,-8.798 16.676,-13.304 4.157,-3.393 8.362,-6.704 12.636,-9.946 5.602,-4.271 10.992,-8.749 16.34,-13.333 0.981,-0.839 1.962,-1.678 2.972,-2.543 0.53,-0.461 1.06,-0.923 1.606,-1.399 C -11.832,-1.097 -6.682,-2.953 0,0 Z"
       fill="#5E7E60"
       id="path10"
       style="fill:#e87d5f;fill-opacity:1;stroke:#e87d5f;stroke-width:10;stroke-dasharray:none;stroke-opacity:1" /></g></svg>
