<?xml version="1.0" encoding="UTF-8" standalone="no"?>
<svg
   version="1.1"
   viewBox="0 0 89.999989 89.999989"
   id="svg54"
   xml:space="preserve"
   width="23.812498mm"
   height="23.812498mm"
   xmlns="http://www.w3.org/2000/svg"
   xmlns:svg="http://www.w3.org/2000/svg"><defs
     id="defs58" /><rect
     style="fill:none;fill-opacity:1;stroke:none;stroke-width:0.1;stroke-linecap:square;stroke-dasharray:none;stroke-opacity:1;paint-order:stroke markers fill"
     id="rect2472"
     width="90"
     height="90"
     x="0"
     y="0" /><path
     id="rect3120"
     style="fill:#fbe9ce;fill-opacity:1;stroke:#fbe9ce;stroke-width:4;stroke-linecap:square;stroke-dasharray:none;stroke-opacity:1"
     d="m 18.631834,21.934668 h 53.705393 c 4.265283,0 8.161242,3.798986 7.699068,8.458389 L 75.914261,71.9493 c -0.445714,4.493465 -3.024134,8.132966 -6.780567,8.132966 H 21.835367 c -3.756433,0 -6.337942,-3.670658 -6.780566,-8.132966 L 10.932767,30.393057 c -0.462174,-4.659403 3.433784,-8.458389 7.699067,-8.458389 z" /><path
     d="m 72.045606,46.372385 c 0.410543,0.293265 0.75916,0.660373 0.858523,1.164869 0.04552,0.708566 -0.185955,1.065164 -0.631711,1.577803 -0.395861,0.409455 -0.815882,0.788937 -1.240484,1.168361 -0.324644,0.296157 -0.632214,0.602209 -0.9379,0.917966 -0.512331,0.528011 -1.048158,1.022733 -1.59385,1.515825 -0.301957,0.280379 -0.587721,0.569726 -0.872447,0.867495 -0.785217,0.807197 -1.634314,1.542522 -2.48524,2.279369 -0.168075,0.145681 -0.335715,0.291884 -0.502693,0.438751 -2.399056,2.108194 -5.376781,4.078572 -8.708062,3.916857 -0.09654,-0.0026 -0.19308,-0.0053 -0.292509,-0.008 -2.079561,-0.116366 -3.904187,-1.029095 -5.663861,-2.069694 -1.287858,-0.758847 -2.502587,-1.344088 -4.051801,-1.009091 -1.890909,0.674965 -3.425637,2.305306 -4.844203,3.679732 -1.363887,1.303296 -3.072319,2.233221 -4.975839,2.278907 -1.158201,-0.04003 -2.21174,-0.439479 -3.284452,-0.846964 -1.228931,-0.465989 -2.17513,-0.631978 -3.408239,-0.07924 -0.962102,0.500497 -1.798081,1.124435 -2.570712,1.882585 -0.268115,0.261401 -0.543566,0.51332 -0.820258,0.765607 -0.407452,0.375325 -0.799854,0.760238 -1.184782,1.158387 -0.474609,0.48646 -0.96291,0.953804 -1.464597,1.411835 -0.06752,0.06247 -0.135037,0.124939 -0.204658,0.189267 -0.470531,0.424928 -0.787438,0.56576 -1.416384,0.544491 -0.562286,-0.05727 -0.830564,-0.260969 -1.188411,-0.687935 -0.300201,-0.431814 -0.342867,-0.707251 -0.295067,-1.228169 0.378945,-1.018131 1.371437,-1.699872 2.164749,-2.405923 0.294098,-0.261792 0.583041,-0.52792 0.867387,-0.800502 0.07144,-0.06838 0.14288,-0.136769 0.216445,-0.207252 0.07317,-0.07016 0.146343,-0.140313 0.221758,-0.212557 4.282649,-4.101376 4.282649,-4.101376 7.307132,-4.058923 1.000652,0.04995 1.856386,0.344359 2.782637,0.69617 1.244496,0.469951 2.22795,0.736261 3.516878,0.228826 1.398347,-0.637258 2.544637,-1.848292 3.640875,-2.899195 1.704983,-1.61303 3.581229,-2.883069 6.012141,-2.84102 2.049217,0.130114 3.66494,0.97854 5.409494,1.964292 1.874181,1.056537 3.408051,1.458189 5.553033,0.878703 2.488872,-0.836829 4.748674,-2.75965 6.607478,-4.581334 0.284087,-0.275019 0.577522,-0.538803 0.870838,-0.803926 0.433145,-0.394931 0.851,-0.798143 1.258337,-1.219578 0.514761,-0.530806 1.054654,-1.023827 1.607329,-1.514105 0.531544,-0.474358 1.027259,-0.972518 1.515278,-1.492021 0.698256,-0.668313 1.295496,-0.914356 2.227848,-0.560659 z"
     fill="#5D7D5E"
     id="path8"
     style="fill:#e87d5f;fill-opacity:1;stroke:#e87d5f;stroke-width:2.40343;stroke-dasharray:none;stroke-opacity:1" /><circle
     style="fill:#5d7d5f;fill-opacity:1;stroke:#fbe9ce;stroke-width:4;stroke-linecap:square;stroke-dasharray:none;stroke-opacity:1"
     id="path3174"
     cx="46.188343"
     cy="26.223728"
     r="18.223728" /><path
     d="m 53.148872,17.61222 c 0.3486,0.2732 0.5725,0.5271 0.7312,0.9438 0,0.9315 -0.5871,1.9064 -0.9427,2.7619 -0.1553,0.3738 -0.3098,0.7479 -0.4643,1.122 -0.0322,0.0779 -0.0644,0.1558 -0.0975,0.2361 -0.3586,0.8688 -0.7117,1.7399 -1.0642,2.6112 -0.0633,0.1565 -0.1267,0.313 -0.19,0.4695 -0.031,0.0765 -0.0619,0.153 -0.0938,0.2318 -0.0306,0.0756 -0.0612,0.1512 -0.0928,0.2292 -0.0453,0.112 -0.0453,0.112 -0.0915,0.2262 -0.1907,0.4712 -0.3821,0.9421 -0.5741,1.4128 -0.0476,0.1169 -0.0953,0.2337 -0.1443,0.3541 -0.0908,0.222 -0.1817,0.444 -0.2729,0.6659 -0.2042,0.4985 -0.404,0.9977 -0.5926,1.5023 -0.0347,0.0915 -0.0694,0.183 -0.1053,0.2773 -0.0629,0.1668 -0.1245,0.3342 -0.1841,0.5022 -0.2627,0.6908 -0.6807,1.1506 -1.3149,1.5287 -0.7464,0.2115 -1.3689,0.2047 -2.0556,-0.1606 -0.4245,-0.2576 -0.8104,-0.5645 -1.2006,-0.8706 -0.1852,-0.1437 -0.3705,-0.2872 -0.5559,-0.4305 -0.0933,-0.0722 -0.1866,-0.1443 -0.2827,-0.2187 -0.2688,-0.2047 -0.5406,-0.4042 -0.8149,-0.6016 -0.0847,-0.0611 -0.1693,-0.1221 -0.2565,-0.185 -0.1589,-0.114 -0.3182,-0.2274 -0.4782,-0.3398 -0.6116,-0.4408 -1.3531,-1.018 -1.5306,-1.787 -0.0784,-0.6796 0.1237,-1.2407 0.5368,-1.7777 0.4489,-0.4746 0.9843,-0.8562 1.5043,-1.2488 0.373,-0.2824 0.7382,-0.574 1.1027,-0.8672 0.9234,-0.7415 1.8525,-1.4751 2.7938,-2.1937 0.5653,-0.4321 1.117,-0.8798 1.6676,-1.3304 0.4157,-0.3393 0.8362,-0.6704 1.2636,-0.9946 0.5602,-0.4271 1.0992,-0.8749 1.634,-1.3333 0.0981,-0.0839 0.1962,-0.1678 0.2972,-0.2543 0.053,-0.0461 0.106,-0.0923 0.1606,-0.1399 0.525,-0.451 1.04,-0.6366 1.7082,-0.3413 z"
     fill="#5E7E60"
     id="path10"
     style="fill:#e87d5f;fill-opacity:1;stroke:#e87d5f;stroke-width:1;stroke-dasharray:none;stroke-opacity:1" /></svg>
