<?xml version="1.0" encoding="UTF-8"?>
<svg version="1.1" viewBox="0 0 1024 1024" xmlns="http://www.w3.org/2000/svg">
<path transform="translate(507.88 101.88)" d="m0 0c11.459-0.237 22.747 0.776 34.117 2.121 0.748 0.081 1.497 0.161 2.268 0.244 44.79 4.995 90.413 33.2 118.73 67.756 4.253 5.494 8.163 11.211 12 17 1.077 1.599 1.077 1.599 2.176 3.231 6.282 9.732 10.996 20.263 15.824 30.769h2c0.107 1.134 0.214 2.269 0.324 3.438 0.594 4.737 1.997 9.043 3.489 13.562 2.425 7.715 4.179 15.398 5.5 23.375 0.159 0.949 0.318 1.898 0.481 2.875 0.841 5.365 1.384 10.701 1.754 16.12 0.129 1.869 0.129 1.869 0.26 3.776 0.064 0.942 0.127 1.884 0.192 2.854 0.935-4e-3 1.87-9e-3 2.834-0.013 8.897-0.041 17.794-0.071 26.692-0.091 4.572-0.01 9.144-0.024 13.716-0.047 4.428-0.022 8.857-0.034 13.285-0.039 1.673-3e-3 3.346-0.01 5.019-0.021 8.908-0.056 17.709 0.177 26.578 1.063 1.137 0.11 1.137 0.11 2.298 0.221 7.876 0.875 15.13 3.336 22.578 5.927 0.744 0.174 1.488 0.348 2.254 0.527 1.746 0.473 1.746 0.473 4.746 2.473 0.98 0.598 1.96 1.196 2.969 1.813 19.636 12.073 34.916 29.408 41.512 51.875 3.564 15.866 2.702 31.53 1.223 47.563-0.242 2.616-0.475 5.233-0.706 7.851-0.409 4.612-0.825 9.224-1.243 13.835-0.67 7.392-1.334 14.784-1.99 22.177-0.228 2.559-0.463 5.117-0.698 7.675-0.728 8.09-1.315 16.078-1.067 24.211h-2c0.012 0.551 0.023 1.101 0.035 1.668 0.11 10.124-0.506 20.225-1.035 30.332l-2 1c0.031 0.953 0.031 0.953 0.063 1.925 0.158 9.144-0.682 18.123-1.575 27.21-0.278 2.832-0.549 5.665-0.818 8.498-0.669 7.022-1.349 14.042-2.03 21.063-0.578 5.964-1.151 11.929-1.717 17.894-0.268 2.794-0.542 5.586-0.816 8.379-0.163 1.7-0.324 3.4-0.486 5.1-0.078 0.778-0.157 1.556-0.238 2.358-0.481 3.903-0.481 3.903 0.617 7.573h-2c0.021 1.968 0.021 1.968 0.042 3.976-2e-3 4.506-0.283 8.931-0.705 13.415-0.071 0.794-0.143 1.588-0.216 2.407-0.238 2.634-0.482 5.268-0.726 7.902-0.172 1.9-0.345 3.8-0.517 5.699-0.467 5.144-0.94 10.286-1.414 15.429-0.296 3.219-0.591 6.437-0.886 9.656-1.03 11.247-2.065 22.493-3.103 33.739-0.966 10.455-1.922 20.911-2.873 31.367-0.82 9-1.646 17.999-2.477 26.997-0.495 5.365-0.988 10.729-1.474 16.095-0.458 5.051-0.924 10.101-1.396 15.151-0.171 1.843-0.339 3.687-0.504 5.531-2.918 32.54-13.401 61.327-38.747 83.3-23.163 19.134-49.709 23.67-78.949 23.59-1.863 2e-3 -3.726 6e-3 -5.59 0.01-5.077 8e-3 -10.154 4e-3 -15.231-2e-3 -5.492-5e-3 -10.984 2e-3 -16.477 8e-3 -10.741 8e-3 -21.483 6e-3 -32.225 1e-3 -8.733-5e-3 -17.467-5e-3 -26.2-3e-3 -1.245 0-2.49 0-3.773 1e-3 -2.53 0-5.06 1e-3 -7.59 2e-3 -23.021 5e-3 -46.042-1e-3 -69.063-0.011-20.988-0.01-41.977-9e-3 -62.965 1e-3 -23.616 0.011-47.231 0.015-70.846 9e-3 -2.52-1e-3 -5.041-2e-3 -7.561-2e-3 -1.239-1e-3 -2.479-1e-3 -3.757-1e-3 -8.719-2e-3 -17.438 1e-3 -26.157 6e-3 -10.63 5e-3 -21.261 4e-3 -31.892-7e-3 -5.42-5e-3 -10.839-7e-3 -16.259-1e-3 -4.968 6e-3 -9.937 3e-3 -14.905-8e-3 -1.79-2e-3 -3.58-1e-3 -5.37 4e-3 -11.729 0.03-22.938-0.687-34.487-2.889-2.669-0.626-2.669-0.626-4.707 0.628v-3c-0.834-0.093-1.668-0.186-2.527-0.281-4.02-0.832-7.409-2.364-11.035-4.219-0.701-0.358-1.402-0.716-2.125-1.085-25.801-13.489-43.61-35.504-53.125-62.915-1.829-6.427-2.878-12.729-3.66-19.359-0.126-1.038-0.252-2.075-0.382-3.144-1.457-12.229-2.616-24.487-3.771-36.747-0.324-3.436-0.649-6.871-0.978-10.306-0.203-2.11-0.402-4.22-0.598-6.331-0.09-0.943-0.181-1.886-0.274-2.858-0.077-0.825-0.155-1.649-0.235-2.499-0.276-2.151-0.752-4.159-1.29-6.256-0.033-1.447-0.02-2.896 0.028-4.344 0.068-6.773-0.715-13.432-1.465-20.156-0.135-1.274-0.27-2.547-0.409-3.859-0.397-6.002-0.397-6.002-2.154-11.641-0.035-1.377-0.017-2.756 0.028-4.133 0.065-6.589-0.595-13.098-1.255-19.646-0.212-2.112-0.416-4.225-0.619-6.338-0.458-6.396-0.458-6.396-1.655-12.661-0.669-2.98-0.735-5.866-0.866-8.92-0.435-8.459-1.201-16.881-2.016-25.311-0.067-0.694-0.134-1.389-0.203-2.104-0.432-4.463-0.87-8.925-1.309-13.388-0.31-3.149-0.617-6.299-0.925-9.448-0.724-7.422-1.452-14.843-2.182-22.265-0.752-7.648-1.499-15.297-2.244-22.947-0.642-6.592-1.287-13.184-1.934-19.776-0.385-3.928-0.77-7.855-1.152-11.782-0.358-3.68-0.719-7.358-1.083-11.037-0.197-1.995-0.39-3.99-0.583-5.985-0.118-1.182-0.235-2.365-0.357-3.584-0.101-1.029-0.202-2.059-0.306-3.12-0.272-2.67-0.272-2.67-1.339-5.555-0.189-2.654-0.335-5.296-0.449-7.953-0.492-9.964-1.395-19.866-2.363-29.793-0.176-1.831-0.352-3.662-0.527-5.494-0.457-4.765-0.918-9.529-1.38-14.294-0.468-4.839-0.933-9.679-1.398-14.519-0.524-5.452-1.048-10.904-1.575-16.355-1.309-13.525-1.309-13.525-1.909-19.967-0.075-0.795-0.149-1.591-0.225-2.41-1.874-23.941 6.064-45.713 21.201-64.027 7.297-8.496 15.51-14.413 25.352-19.743 1.125-0.715 1.125-0.715 2.273-1.445v-2c1.01-0.124 2.019-0.247 3.059-0.375 3.808-0.604 7.315-1.514 11.004-2.625 6.67-2.005 12.753-3.113 19.727-3.205 0.651-0.01 1.303-0.02 1.974-0.03 2.144-0.032 4.288-0.057 6.431-0.081l4.539-0.063c3.176-0.044 6.352-0.085 9.527-0.124 4.01-0.048 8.019-0.102 12.029-0.158 9.57-0.132 19.14-0.245 28.71-0.339 1.149-0.011 2.297-0.023 3.48-0.034 2.879-0.026 5.758-0.043 8.637-0.056 0.8-6e-3 1.599-0.013 2.423-0.02 5.226-7e-3 5.226-7e-3 7.46 1.11 0.04-0.622 0.079-1.244 0.12-1.886 0.95-14.299 2.399-28.195 5.88-42.114 0.223-0.89 0.445-1.779 0.675-2.696 12.142-46.875 43.22-87.783 84.356-113.18 2.624-1.458 5.275-2.806 7.969-4.129 1.385-0.708 2.769-1.418 4.153-2.129 1.469-0.75 2.939-1.498 4.41-2.246 1.056-0.538 1.056-0.538 2.133-1.087 5.071-2.538 5.071-2.538 7.304-2.538l1-2c1.965-0.748 1.965-0.748 4.492-1.441 3.363-0.95 6.699-1.927 10.016-3.024 18.687-6.025 37.772-9.045 57.375-9.656zm-84.883 18.121c0.99 0.33 1.98 0.66 3 1-0.99 0.33-1.98 0.66-3 1v-2zm-14 8 2 1zm-2 1 2 1zm246 31 2 1zm9 10 2 1zm-465 127 2 1zm640 7c0.99 0.33 1.98 0.66 3 1h-3v-1zm-632 551 2 1z" fill="#FBE9CE"/>
<path transform="translate(507.88 101.88)" d="m0 0c11.459-0.237 22.747 0.776 34.117 2.121 0.748 0.081 1.497 0.161 2.268 0.244 44.79 4.995 90.413 33.2 118.73 67.756 4.253 5.494 8.163 11.211 12 17 1.077 1.599 1.077 1.599 2.176 3.231 6.282 9.732 10.996 20.263 15.824 30.769h2c0.107 1.134 0.214 2.269 0.324 3.438 0.594 4.737 1.997 9.043 3.489 13.562 2.425 7.715 4.179 15.398 5.5 23.375 0.159 0.949 0.318 1.898 0.481 2.875 0.841 5.365 1.384 10.701 1.754 16.12 0.129 1.869 0.129 1.869 0.26 3.776 0.064 0.942 0.127 1.884 0.192 2.854 0.935-4e-3 1.87-9e-3 2.834-0.013 8.897-0.041 17.794-0.071 26.692-0.091 4.572-0.01 9.144-0.024 13.716-0.047 4.428-0.022 8.857-0.034 13.285-0.039 1.673-3e-3 3.346-0.01 5.019-0.021 8.908-0.056 17.709 0.177 26.578 1.063 1.137 0.11 1.137 0.11 2.298 0.221 7.876 0.875 15.13 3.336 22.578 5.927 0.744 0.174 1.488 0.348 2.254 0.527 1.746 0.473 1.746 0.473 4.746 2.473 0.98 0.598 1.96 1.196 2.969 1.813 19.636 12.073 34.916 29.408 41.512 51.875 3.564 15.866 2.702 31.53 1.223 47.563-0.242 2.616-0.475 5.233-0.706 7.851-0.409 4.612-0.825 9.224-1.243 13.835-0.67 7.392-1.334 14.784-1.99 22.177-0.228 2.559-0.463 5.117-0.698 7.675-0.728 8.09-1.315 16.078-1.067 24.211h-2c0.012 0.551 0.023 1.101 0.035 1.668 0.11 10.124-0.506 20.225-1.035 30.332l-2 1c0.031 0.953 0.031 0.953 0.063 1.925 0.158 9.144-0.682 18.123-1.575 27.21-0.278 2.832-0.549 5.665-0.818 8.498-0.669 7.022-1.349 14.042-2.03 21.063-0.578 5.964-1.151 11.929-1.717 17.894-0.268 2.794-0.542 5.586-0.816 8.379-0.163 1.7-0.324 3.4-0.486 5.1-0.078 0.778-0.157 1.556-0.238 2.358-0.481 3.903-0.481 3.903 0.617 7.573h-2c0.021 1.968 0.021 1.968 0.042 3.976-2e-3 4.506-0.283 8.931-0.705 13.415-0.071 0.794-0.143 1.588-0.216 2.407-0.238 2.634-0.482 5.268-0.726 7.902-0.172 1.9-0.345 3.8-0.517 5.699-0.467 5.144-0.94 10.286-1.414 15.429-0.296 3.219-0.591 6.437-0.886 9.656-1.03 11.247-2.065 22.493-3.103 33.739-0.966 10.455-1.922 20.911-2.873 31.367-0.82 9-1.646 17.999-2.477 26.997-0.495 5.365-0.988 10.729-1.474 16.095-0.458 5.051-0.924 10.101-1.396 15.151-0.171 1.843-0.339 3.687-0.504 5.531-2.918 32.54-13.401 61.327-38.747 83.3-23.163 19.134-49.709 23.67-78.949 23.59-1.863 2e-3 -3.726 6e-3 -5.59 0.01-5.077 8e-3 -10.154 4e-3 -15.231-2e-3 -5.492-5e-3 -10.984 2e-3 -16.477 8e-3 -10.741 8e-3 -21.483 6e-3 -32.225 1e-3 -8.733-5e-3 -17.467-5e-3 -26.2-3e-3 -1.245 0-2.49 0-3.773 1e-3 -2.53 0-5.06 1e-3 -7.59 2e-3 -23.021 5e-3 -46.042-1e-3 -69.063-0.011-20.988-0.01-41.977-9e-3 -62.965 1e-3 -23.616 0.011-47.231 0.015-70.846 9e-3 -2.52-1e-3 -5.041-2e-3 -7.561-2e-3 -1.239-1e-3 -2.479-1e-3 -3.757-1e-3 -8.719-2e-3 -17.438 1e-3 -26.157 6e-3 -10.63 5e-3 -21.261 4e-3 -31.892-7e-3 -5.42-5e-3 -10.839-7e-3 -16.259-1e-3 -4.968 6e-3 -9.937 3e-3 -14.905-8e-3 -1.79-2e-3 -3.58-1e-3 -5.37 4e-3 -11.729 0.03-22.938-0.687-34.487-2.889-2.669-0.626-2.669-0.626-4.707 0.628v-3c-0.834-0.093-1.668-0.186-2.527-0.281-4.02-0.832-7.409-2.364-11.035-4.219-0.701-0.358-1.402-0.716-2.125-1.085-25.801-13.489-43.61-35.504-53.125-62.915-1.829-6.427-2.878-12.729-3.66-19.359-0.126-1.038-0.252-2.075-0.382-3.144-1.457-12.229-2.616-24.487-3.771-36.747-0.324-3.436-0.649-6.871-0.978-10.306-0.203-2.11-0.402-4.22-0.598-6.331-0.09-0.943-0.181-1.886-0.274-2.858-0.077-0.825-0.155-1.649-0.235-2.499-0.276-2.151-0.752-4.159-1.29-6.256-0.033-1.447-0.02-2.896 0.028-4.344 0.068-6.773-0.715-13.432-1.465-20.156-0.135-1.274-0.27-2.547-0.409-3.859-0.397-6.002-0.397-6.002-2.154-11.641-0.035-1.377-0.017-2.756 0.028-4.133 0.065-6.589-0.595-13.098-1.255-19.646-0.212-2.112-0.416-4.225-0.619-6.338-0.458-6.396-0.458-6.396-1.655-12.661-0.669-2.98-0.735-5.866-0.866-8.92-0.435-8.459-1.201-16.881-2.016-25.311-0.067-0.694-0.134-1.389-0.203-2.104-0.432-4.463-0.87-8.925-1.309-13.388-0.31-3.149-0.617-6.299-0.925-9.448-0.724-7.422-1.452-14.843-2.182-22.265-0.752-7.648-1.499-15.297-2.244-22.947-0.642-6.592-1.287-13.184-1.934-19.776-0.385-3.928-0.77-7.855-1.152-11.782-0.358-3.68-0.719-7.358-1.083-11.037-0.197-1.995-0.39-3.99-0.583-5.985-0.118-1.182-0.235-2.365-0.357-3.584-0.101-1.029-0.202-2.059-0.306-3.12-0.272-2.67-0.272-2.67-1.339-5.555-0.189-2.654-0.335-5.296-0.449-7.953-0.492-9.964-1.395-19.866-2.363-29.793-0.176-1.831-0.352-3.662-0.527-5.494-0.457-4.765-0.918-9.529-1.38-14.294-0.468-4.839-0.933-9.679-1.398-14.519-0.524-5.452-1.048-10.904-1.575-16.355-1.309-13.525-1.309-13.525-1.909-19.967-0.075-0.795-0.149-1.591-0.225-2.41-1.874-23.941 6.064-45.713 21.201-64.027 7.297-8.496 15.51-14.413 25.352-19.743 1.125-0.715 1.125-0.715 2.273-1.445v-2c1.01-0.124 2.019-0.247 3.059-0.375 3.808-0.604 7.315-1.514 11.004-2.625 6.67-2.005 12.753-3.113 19.727-3.205 0.651-0.01 1.303-0.02 1.974-0.03 2.144-0.032 4.288-0.057 6.431-0.081l4.539-0.063c3.176-0.044 6.352-0.085 9.527-0.124 4.01-0.048 8.019-0.102 12.029-0.158 9.57-0.132 19.14-0.245 28.71-0.339 1.149-0.011 2.297-0.023 3.48-0.034 2.879-0.026 5.758-0.043 8.637-0.056 0.8-6e-3 1.599-0.013 2.423-0.02 5.226-7e-3 5.226-7e-3 7.46 1.11 0.04-0.622 0.079-1.244 0.12-1.886 0.95-14.299 2.399-28.195 5.88-42.114 0.223-0.89 0.445-1.779 0.675-2.696 12.142-46.875 43.22-87.783 84.356-113.18 2.624-1.458 5.275-2.806 7.969-4.129 1.385-0.708 2.769-1.418 4.153-2.129 1.469-0.75 2.939-1.498 4.41-2.246 1.056-0.538 1.056-0.538 2.133-1.087 5.071-2.538 5.071-2.538 7.304-2.538l1-2c1.965-0.748 1.965-0.748 4.492-1.441 3.363-0.95 6.699-1.927 10.016-3.024 18.687-6.025 37.772-9.045 57.375-9.656zm-316.59 239.04c-13.128 17.647-13.037 35.467-10.898 56.322 0.153 1.526 0.305 3.053 0.456 4.579 0.33 3.311 0.663 6.621 0.998 9.931 0.55 5.422 1.091 10.844 1.632 16.267 0.792 7.937 1.587 15.873 2.384 23.81 2.052 20.418 4.086 40.838 6.116 61.259l0.681 6.843c3.752 37.723 7.412 75.454 11.013 113.19 0.379 3.963 0.757 7.925 1.136 11.887 2.342 24.524 4.681 49.048 7.002 73.574 0.92 9.717 1.844 19.434 2.772 29.151 0.641 6.715 1.276 13.431 1.906 20.147 0.388 4.113 0.781 8.226 1.176 12.338 0.179 1.874 0.355 3.748 0.529 5.622 0.826 8.886 1.774 17.712 3.292 26.51 0.175 1.022 0.175 1.022 0.352 2.065 1.153 6.309 3.27 11.884 6.16 17.585 0.504 0.995 1.008 1.99 1.528 3.016 9.025 16.565 23.724 28.898 41.576 35.055 10.493 3.089 20.282 3.497 31.17 3.444 1.911 5e-3 3.822 0.012 5.734 0.021 5.214 0.018 10.428 0.012 15.642 2e-3 5.638-7e-3 11.276 9e-3 16.914 0.022 11.031 0.021 22.061 0.021 33.092 0.013 8.968-6e-3 17.936-5e-3 26.905 1e-3 1.917 2e-3 1.917 2e-3 3.873 3e-3 2.598 2e-3 5.195 4e-3 7.792 6e-3 17.427 0.011 34.854 0.016 52.28 5e-3 1.021-1e-3 1.021-1e-3 2.063-2e-3 5.525-3e-3 11.051-7e-3 16.577-0.011 21.552-0.015 43.104-6e-3 64.656 0.022 24.247 0.031 48.494 0.046 72.741 0.036 2.587-1e-3 5.175-2e-3 7.763-3e-3 1.91 0 1.91 0 3.858-1e-3 8.952-2e-3 17.905 7e-3 26.857 0.022 10.918 0.018 21.835 0.017 32.752-5e-3 5.566-0.011 11.131-0.015 16.697 4e-3 5.103 0.017 10.206 0.01 15.309-0.014 1.838-5e-3 3.676-2e-3 5.513 0.011 21.051 0.138 39.702-5.747 54.989-20.834 19.492-20.164 22.129-43.057 24.461-69.805 0.245-2.714 0.494-5.428 0.742-8.141 0.532-5.84 1.056-11.681 1.573-17.522 0.759-8.58 1.533-17.158 2.311-25.736 1.2-13.245 2.392-26.491 3.578-39.737 1.781-19.881 3.59-39.759 5.41-59.636 0.668-7.294 1.334-14.589 2.001-21.883 0.11-1.2 0.11-1.2 0.222-2.425 5.5-60.165 10.88-120.34 16.135-180.53 0.218-2.5 0.437-5 0.655-7.5 0.401-4.585 0.8-9.169 1.198-13.753 0.177-2.032 0.355-4.063 0.532-6.094 0.116-1.343 0.116-1.343 0.234-2.712 0.424-4.833 0.905-9.655 1.46-14.474 1.695-15.293-2.601-29.532-11.969-41.691-11.066-12.787-25.969-21.054-43.028-22.342-6.031-0.251-12.063-0.179-18.097-0.127-1.932 6e-3 -3.864 0.01-5.796 0.013-5.042 0.011-10.083 0.041-15.125 0.074-5.162 0.031-10.325 0.045-15.487 0.06-10.097 0.032-20.194 0.083-30.291 0.146-0.129 0.685-0.259 1.371-0.392 2.077-4.827 25.341-4.827 25.341-8.795 36.673-0.383 1.115-0.766 2.23-1.161 3.379-17.141 48.567-51.713 87.081-97.761 109.97-5.505 2.627-11.169 4.798-16.891 6.902-1.144 0.431-2.289 0.861-3.469 1.305-48.406 17.242-101.92 13.191-148.22-8.492-10.421-5.045-19.963-11.008-29.313-17.813-0.6-0.427-1.201-0.854-1.819-1.293-23.524-16.832-41.718-39.303-55.181-64.707-0.369-0.695-0.739-1.39-1.12-2.107-8.744-16.751-14.372-34.604-17.618-53.182-0.332-1.846-0.332-1.846-0.671-3.73-0.537-2.992-1.067-5.986-1.591-8.981-11.527-0.07-23.054-0.123-34.582-0.155-5.353-0.016-10.707-0.037-16.06-0.071-5.175-0.033-10.349-0.051-15.523-0.059-1.966-5e-3 -3.932-0.016-5.898-0.032-22.54-0.179-42.281 4.381-57.644 22.235zm231.71-220.92c0.99 0.33 1.98 0.66 3 1-0.99 0.33-1.98 0.66-3 1v-2zm-14 8 2 1zm-2 1 2 1zm246 31 2 1zm9 10 2 1zm-465 127 2 1zm640 7c0.99 0.33 1.98 0.66 3 1h-3v-1zm-632 551 2 1z" fill="#5D7D5F"/>
<path transform="translate(618,171)" d="m0 0c4.138 3.524 8.085 7.23 12 11 0.641 0.589 1.281 1.178 1.941 1.785 29.215 27.588 42.785 69.554 44.184 108.72 0.743 43.077-13.786 85.435-43.629 116.96-1.484 1.528-2.984 3.036-4.496 4.536-0.484 0.482-0.969 0.963-1.468 1.459-28.523 28-67.752 43.853-107.53 45.541-1.241 0.062-1.241 0.062-2.508 0.125-34.321 0.861-70.968-9.344-98.492-30.125-1.065-0.772-2.13-1.544-3.227-2.34-15.144-11.225-28.514-24.829-38.773-40.66-0.429-0.659-0.857-1.319-1.299-1.998-13.509-21.12-22.037-45.021-24.701-70.002-0.164-1.427-0.164-1.427-0.332-2.883-4.188-41.882 7.261-83.988 33.207-117.24 20.867-25.214 45.483-42.563 76.125-53.875 1.085-0.412 2.171-0.825 3.289-1.25 52.393-18.076 113.52-4.244 155.71 30.25z" fill="#FBE9CE"/>
<path transform="translate(727,529)" d="m0 0c3.625 2.118 6.793 4.895 8 9 0.916 5.837-0.731 8.968-4.035 13.555-2.969 3.694-6.161 7.158-9.391 10.625-2.465 2.701-4.781 5.471-7.074 8.32-3.844 4.765-7.908 9.272-12.055 13.773-2.289 2.553-4.437 5.168-6.57 7.852-5.893 7.286-12.37 14.025-18.861 20.778-1.282 1.335-2.56 2.674-3.832 4.018-18.277 19.294-41.454 37.886-69.182 39.079-0.802 0.052-1.604 0.103-2.43 0.156-17.321 0.617-33.135-5.559-48.508-12.844-11.249-5.309-21.76-9.235-34.343-5.281-15.156 7.031-26.634 21.708-37.344 34.176-10.311 11.837-23.761 20.842-39.5 22.668-9.628 0.549-18.662-1.96-27.861-4.521-10.538-2.927-18.505-3.583-28.303 1.935-7.592 4.879-14.045 10.685-19.871 17.555-2.023 2.37-4.114 4.667-6.215 6.968-3.091 3.42-6.05 6.908-8.937 10.5-3.563 4.392-7.254 8.636-11.063 12.813-0.512 0.569-1.024 1.138-1.552 1.724-3.576 3.879-6.095 5.287-11.323 5.589-4.703-0.047-7.081-1.531-10.371-4.797-2.816-3.35-3.379-5.6-3.379-9.953 2.366-8.725 10.072-15.129 16.109-21.583 2.238-2.393 4.43-4.818 6.579-7.293 0.54-0.621 1.08-1.242 1.636-1.882 0.553-0.637 1.106-1.274 1.676-1.93 32.37-37.243 32.37-37.243 57.465-39.191 8.33-0.347 15.645 1.442 23.588 3.653 10.67 2.948 19.022 4.407 29.317-0.778 11.103-6.344 19.681-17.251 27.966-26.793 12.902-14.663 27.484-26.614 47.66-28.114 17.08-0.48 31.114 5.322 46.32 12.164 16.334 7.33 29.35 9.492 46.684 3.059 19.988-8.827 37.252-26.479 51.27-42.988 2.145-2.495 4.376-4.904 6.605-7.324 3.289-3.602 6.445-7.261 9.5-11.063 3.862-4.79 7.961-9.286 12.168-13.769 4.044-4.335 7.773-8.84 11.422-13.516 5.278-6.069 10.04-8.562 18.035-6.34z" fill="#5D7D5E"/>
<path transform="translate(582.69 212.19)" d="m0 0c3.486 2.732 5.725 5.271 7.312 9.438 0 9.315-5.871 19.064-9.427 27.619-1.553 3.738-3.098 7.479-4.643 11.22-0.322 0.779-0.644 1.558-0.975 2.361-3.586 8.688-7.117 17.399-10.642 26.112-0.633 1.565-1.267 3.13-1.9 4.695-0.31 0.765-0.619 1.53-0.938 2.318-0.306 0.756-0.612 1.512-0.928 2.292-0.453 1.12-0.453 1.12-0.915 2.262-1.907 4.712-3.821 9.421-5.741 14.128-0.476 1.169-0.953 2.337-1.443 3.541-0.908 2.22-1.817 4.44-2.729 6.659-2.042 4.985-4.04 9.977-5.926 15.023-0.347 0.915-0.694 1.83-1.053 2.773-0.629 1.668-1.245 3.342-1.841 5.022-2.627 6.908-6.807 11.506-13.149 15.287-7.464 2.115-13.689 2.047-20.556-1.606-4.245-2.576-8.104-5.645-12.006-8.706-1.852-1.437-3.705-2.872-5.559-4.305-0.933-0.722-1.866-1.443-2.827-2.187-2.688-2.047-5.406-4.042-8.149-6.016-0.847-0.611-1.693-1.221-2.565-1.85-1.589-1.14-3.182-2.274-4.782-3.398-6.116-4.408-13.531-10.18-15.306-17.87-0.784-6.796 1.237-12.407 5.368-17.777 4.489-4.746 9.843-8.562 15.043-12.488 3.73-2.824 7.382-5.74 11.027-8.672 9.234-7.415 18.525-14.751 27.938-21.937 5.653-4.321 11.17-8.798 16.676-13.304 4.157-3.393 8.362-6.704 12.636-9.946 5.602-4.271 10.992-8.749 16.34-13.333 0.981-0.839 1.962-1.678 2.972-2.543 0.53-0.461 1.06-0.923 1.606-1.399 5.25-4.51 10.4-6.366 17.082-3.413z" fill="#5E7E60"/>
<path transform="translate(178,683)" d="m0 0h1v7h-1v-7z" fill="#608162"/>
<path transform="translate(153,426)" d="m0 0h1v6h-1v-6z" fill="#608162"/>
<path transform="translate(168,581)" d="m0 0h1v5h-1v-5z" fill="#608162"/>
<path transform="translate(272,902)" d="m0 0c0.99 0.33 1.98 0.66 3 1h-3v-1z" fill="#608162"/>
<path transform="translate(847,688)" d="m0 0 1 4z" fill="#608162"/>
<path transform="translate(177,674)" d="m0 0 1 4z" fill="#608162"/>
<path transform="translate(171,621)" d="m0 0h2l-1 3-1-3z" fill="#608162"/>
<path transform="translate(855,602)" d="m0 0 1 4z" fill="#608162"/>
<path transform="translate(168,595)" d="m0 0h2l-1 3-1-3z" fill="#608162"/>
<path transform="translate(160,501)" d="m0 0 1 4z" fill="#608162"/>
<path transform="translate(156,460)" d="m0 0 1 4z" fill="#608162"/>
<path transform="translate(755,901)" d="m0 0c3 1 3 1 3 1z" fill="#608162"/>
<path transform="translate(236,288)" d="m0 0c3 1 3 1 3 1z" fill="#608162"/>
<path transform="translate(752,902)" d="m0 0 2 1z" fill="#608162"/>
<path transform="translate(216,290)" d="m0 0 2 1z" fill="#608162"/>
<path transform="translate(792,288)" d="m0 0 2 1z" fill="#608162"/>
<path transform="translate(301,288)" d="m0 0 2 1z" fill="#608162"/>
<path transform="translate(277,288)" d="m0 0 2 1z" fill="#608162"/>
<path transform="translate(269,288)" d="m0 0 2 1z" fill="#608162"/>
<path transform="translate(467,105)" d="m0 0 2 1z" fill="#608162"/>
<path transform="translate(472,104)" d="m0 0 2 1z" fill="#608162"/>
</svg>
